<?xml version="1.0" encoding="UTF-8" standalone="no"?>
<!-- Created with Inkscape (http://www.inkscape.org/) -->

<svg
   version="1.1"
   id="svg2"
   width="300"
   height="202.004"
   viewBox="0 0 300 202.004"
   sodipodi:docname="logo.svg"
   inkscape:version="1.2 (dc2aeda, 2022-05-15)"
   xmlns:inkscape="http://www.inkscape.org/namespaces/inkscape"
   xmlns:sodipodi="http://sodipodi.sourceforge.net/DTD/sodipodi-0.dtd"
   xmlns="http://www.w3.org/2000/svg"
   xmlns:svg="http://www.w3.org/2000/svg">
  <defs
     id="defs6" />
  <sodipodi:namedview
     id="namedview4"
     pagecolor="#ffffff"
     bordercolor="#666666"
     borderopacity="1.0"
     inkscape:showpageshadow="2"
     inkscape:pageopacity="0.0"
     inkscape:pagecheckerboard="0"
     inkscape:deskcolor="#d1d1d1"
     showgrid="false"
     inkscape:zoom="4.8018852"
     inkscape:cx="150.04524"
     inkscape:cy="101.002"
     inkscape:window-width="2066"
     inkscape:window-height="1190"
     inkscape:window-x="0"
     inkscape:window-y="25"
     inkscape:window-maximized="0"
     inkscape:current-layer="g16">
    <inkscape:page
       x="0"
       y="0"
       id="page8"
       width="300"
       height="202.004" />
  </sodipodi:namedview>
  <g
     id="g10"
     inkscape:groupmode="layer"
     inkscape:label="Page 1"
     transform="matrix(1.3333333,0,0,-1.3333333,0,202.004)">
    <g
       id="g16"
       clip-path="none">
      <rect
         style="fill:#0000ff;stroke-width:4.09039"
         id="rect2415"
         width="225.22389"
         height="151.97147"
         x="-0.31237713"
         y="-151.65919"
         transform="scale(1,-1)" />
      <path
         style="fill:#ffffff;stroke:none;stroke-width:0.75px;stroke-linecap:butt;stroke-linejoin:miter;stroke-opacity:1"
         d="M 58.41452,9.9903402e-5 58.570709,17.180841 c 0,0 -5.571311,8.199582 -26.552054,20.148323 -20.980743,11.948741 -32.33103211,12.18271 -32.33103211,12.18271 l 0.15618856,-49.98033977 z"
         id="path3143"
         sodipodi:nodetypes="cczccc" />
      <path
         style="fill:#ffffff;stroke:none;stroke-width:0.75px;stroke-linecap:butt;stroke-linejoin:miter;stroke-opacity:1"
         d="m 57.789766,-0.46846577 c 0,0 0.09175,4.30451047 0.175379,17.61794977 9.47975,7.870345 32.768373,21.792367 54.178245,28.613866 60.45305,19.261231 112.76813,15.306478 112.76813,15.306478 l 0.15619,-61.22591454 z"
         id="path1806"
         sodipodi:nodetypes="ccsccc" />
      <g
         id="g22"
         transform="translate(126,126.3926)">
        <path
           d="M 98.867422,-4.3732825 C 87.079422,-7.7482825 -49.929,-17.793 -61.108,-65.192 l -13.276,-0.618 c 0,0 -3.743566,35.069384 -52.08457,57.5713839 0.059,10.0079997 0.15619,33.6609931 0.15619,33.6609931 L 99.023611,25.266188 Z"
           style="fill:#aa0000;fill-opacity:1;fill-rule:nonzero;stroke:none"
           id="path24"
           sodipodi:nodetypes="ccccccc" />
      </g>
      <g
         id="g26"
         transform="translate(61.1865,16.3613)">
        <path
           d="M 0,0 H 3.85 V 4.546 H 0 c -0.163,-0.9 -0.956,-1.568 -1.869,-1.568 -0.424,0 -0.828,0.14 -1.17,0.407 -0.242,0.178 -0.524,0.273 -0.819,0.273 -0.762,0 -1.38,-0.621 -1.38,-1.384 0,-0.765 0.618,-1.386 1.38,-1.386 0.292,0 0.577,0.094 0.819,0.273 0.342,0.267 0.746,0.407 1.17,0.407 C -0.956,1.568 -0.163,0.9 0,0"
           style="fill:#231f20;fill-opacity:1;fill-rule:nonzero;stroke:none"
           id="path28" />
      </g>
      <g
         id="g30"
         transform="translate(59.3174,22.6318)">
        <path
           d="m 0,0 c -0.295,0 -0.577,-0.094 -0.818,-0.272 -0.343,-0.267 -0.747,-0.409 -1.167,-0.409 -0.932,0 -1.71,0.657 -1.876,1.569 h -3.846 v -4.545 h 3.846 c 0.166,0.913 0.944,1.568 1.876,1.568 0.422,0 0.828,-0.14 1.17,-0.407 0.238,-0.176 0.52,-0.271 0.815,-0.271 0.763,0 1.384,0.621 1.384,1.384 C 1.384,-0.621 0.763,0 0,0"
           style="fill:#231f20;fill-opacity:1;fill-rule:nonzero;stroke:none"
           id="path32" />
      </g>
      <g
         id="g34"
         transform="translate(61.1865,21.6064)">
        <path
           d="M 0,0 H 3.85 V 4.545 H 0 c -0.163,-0.9 -0.956,-1.568 -1.869,-1.568 -0.424,0 -0.828,0.141 -1.17,0.408 -0.242,0.178 -0.524,0.272 -0.819,0.272 -0.762,0 -1.38,-0.621 -1.38,-1.383 0,-0.765 0.618,-1.386 1.38,-1.386 0.292,0 0.577,0.093 0.819,0.272 0.342,0.268 0.746,0.408 1.17,0.408 C -0.956,1.568 -0.163,0.9 0,0"
           style="fill:#231f20;fill-opacity:1;fill-rule:nonzero;stroke:none"
           id="path36" />
      </g>
      <g
         id="g38"
         transform="translate(59.3174,27.877)">
        <path
           d="m 0,0 c -0.295,0 -0.577,-0.094 -0.818,-0.272 -0.343,-0.267 -0.747,-0.409 -1.167,-0.409 -0.932,0 -1.71,0.656 -1.876,1.569 h -3.846 v -4.545 h 3.846 c 0.166,0.912 0.944,1.568 1.876,1.568 0.422,0 0.828,-0.141 1.17,-0.408 0.238,-0.176 0.52,-0.27 0.815,-0.27 0.763,0 1.384,0.621 1.384,1.383 C 1.384,-0.621 0.763,0 0,0"
           style="fill:#231f20;fill-opacity:1;fill-rule:nonzero;stroke:none"
           id="path40" />
      </g>
      <g
         id="g42"
         transform="translate(61.1865,26.8516)">
        <path
           d="M 0,0 H 3.85 V 4.545 H 0 c -0.163,-0.9 -0.956,-1.568 -1.869,-1.568 -0.424,0 -0.828,0.141 -1.17,0.408 -0.242,0.178 -0.524,0.272 -0.819,0.272 -0.762,0 -1.38,-0.621 -1.38,-1.383 0,-0.765 0.618,-1.386 1.38,-1.386 0.292,0 0.577,0.093 0.819,0.272 0.342,0.267 0.746,0.408 1.17,0.408 C -0.956,1.568 -0.163,0.9 0,0"
           style="fill:#231f20;fill-opacity:1;fill-rule:nonzero;stroke:none"
           id="path44" />
      </g>
      <g
         id="g46"
         transform="translate(59.3174,33.1221)">
        <path
           d="m 0,0 c -0.295,0 -0.577,-0.095 -0.818,-0.273 -0.343,-0.267 -0.747,-0.408 -1.167,-0.408 -0.932,0 -1.71,0.656 -1.876,1.569 h -3.846 v -4.546 h 3.846 c 0.166,0.913 0.944,1.568 1.876,1.568 0.422,0 0.828,-0.14 1.17,-0.407 0.238,-0.176 0.52,-0.27 0.815,-0.27 0.763,0 1.384,0.621 1.384,1.383 C 1.384,-0.621 0.763,0 0,0"
           style="fill:#231f20;fill-opacity:1;fill-rule:nonzero;stroke:none"
           id="path48" />
      </g>
      <g
         id="g50"
         transform="translate(61.1865,32.0957)">
        <path
           d="M 0,0 H 3.85 V 4.546 H 0 c -0.163,-0.9 -0.956,-1.568 -1.869,-1.568 -0.424,0 -0.828,0.14 -1.17,0.407 -0.242,0.178 -0.524,0.273 -0.819,0.273 -0.762,0 -1.38,-0.621 -1.38,-1.384 0,-0.765 0.618,-1.386 1.38,-1.386 0.292,0 0.577,0.094 0.819,0.273 0.342,0.267 0.746,0.407 1.17,0.407 C -0.956,1.568 -0.163,0.9 0,0"
           style="fill:#231f20;fill-opacity:1;fill-rule:nonzero;stroke:none"
           id="path52" />
      </g>
      <g
         id="g54"
         transform="translate(59.3174,38.3662)">
        <path
           d="m 0,0 c -0.295,0 -0.577,-0.094 -0.818,-0.272 -0.343,-0.267 -0.747,-0.409 -1.167,-0.409 -0.932,0 -1.71,0.657 -1.876,1.569 h -3.846 v -4.545 h 3.846 c 0.166,0.913 0.944,1.568 1.876,1.568 0.422,0 0.828,-0.14 1.17,-0.407 0.238,-0.176 0.52,-0.271 0.815,-0.271 0.763,0 1.384,0.621 1.384,1.384 C 1.384,-0.621 0.763,0 0,0"
           style="fill:#231f20;fill-opacity:1;fill-rule:nonzero;stroke:none"
           id="path56" />
      </g>
      <g
         id="g58"
         transform="translate(61.1865,37.3408)">
        <path
           d="M 0,0 H 3.85 V 4.545 H 0 C -0.163,3.646 -0.956,2.977 -1.869,2.977 c -0.424,0 -0.828,0.141 -1.17,0.408 -0.242,0.178 -0.524,0.272 -0.819,0.272 -0.762,0 -1.38,-0.621 -1.38,-1.383 0,-0.765 0.618,-1.386 1.38,-1.386 0.292,0 0.577,0.093 0.819,0.273 0.342,0.267 0.746,0.407 1.17,0.407 C -0.956,1.568 -0.163,0.9 0,0"
           style="fill:#231f20;fill-opacity:1;fill-rule:nonzero;stroke:none"
           id="path60" />
      </g>
      <g
         id="g62"
         transform="translate(59.3174,43.6113)">
        <path
           d="m 0,0 c -0.295,0 -0.577,-0.094 -0.818,-0.272 -0.343,-0.267 -0.747,-0.409 -1.167,-0.409 -0.932,0 -1.71,0.656 -1.876,1.569 h -3.846 v -4.545 h 3.846 c 0.166,0.913 0.944,1.568 1.876,1.568 0.422,0 0.828,-0.141 1.17,-0.408 0.238,-0.176 0.52,-0.27 0.815,-0.27 0.763,0 1.384,0.621 1.384,1.384 C 1.384,-0.621 0.763,0 0,0"
           style="fill:#231f20;fill-opacity:1;fill-rule:nonzero;stroke:none"
           id="path64" />
      </g>
      <g
         id="g66"
         transform="translate(61.1865,42.5859)">
        <path
           d="M 0,0 H 3.85 V 4.545 H 0 c -0.163,-0.9 -0.956,-1.568 -1.869,-1.568 -0.424,0 -0.828,0.141 -1.17,0.408 -0.242,0.178 -0.524,0.272 -0.819,0.272 -0.762,0 -1.38,-0.621 -1.38,-1.383 0,-0.765 0.618,-1.386 1.38,-1.386 0.292,0 0.577,0.093 0.819,0.272 0.342,0.267 0.746,0.408 1.17,0.408 C -0.956,1.568 -0.163,0.9 0,0"
           style="fill:#231f20;fill-opacity:1;fill-rule:nonzero;stroke:none"
           id="path68" />
      </g>
      <g
         id="g70"
         transform="translate(59.3174,48.8564)">
        <path
           d="m 0,0 c -0.295,0 -0.577,-0.095 -0.818,-0.273 -0.343,-0.267 -0.747,-0.408 -1.167,-0.408 -0.932,0 -1.71,0.656 -1.876,1.569 h -3.846 v -4.546 h 3.846 c 0.166,0.913 0.944,1.569 1.876,1.569 0.422,0 0.828,-0.141 1.17,-0.408 0.238,-0.176 0.52,-0.27 0.815,-0.27 0.763,0 1.384,0.621 1.384,1.383 C 1.384,-0.621 0.763,0 0,0"
           style="fill:#231f20;fill-opacity:1;fill-rule:nonzero;stroke:none"
           id="path72" />
      </g>
      <g
         id="g74"
         transform="translate(61.1865,47.8301)">
        <path
           d="M 0,0 H 3.85 V 4.546 H 0 c -0.163,-0.9 -0.956,-1.568 -1.869,-1.568 -0.424,0 -0.828,0.14 -1.17,0.407 -0.242,0.178 -0.524,0.273 -0.819,0.273 -0.762,0 -1.38,-0.621 -1.38,-1.384 0,-0.765 0.618,-1.386 1.38,-1.386 0.292,0 0.577,0.094 0.819,0.273 0.342,0.267 0.746,0.408 1.17,0.408 C -0.956,1.569 -0.163,0.9 0,0"
           style="fill:#231f20;fill-opacity:1;fill-rule:nonzero;stroke:none"
           id="path76" />
      </g>
      <g
         id="g78"
         transform="translate(59.3174,54.1016)">
        <path
           d="m 0,0 c -0.295,0 -0.577,-0.095 -0.818,-0.273 -0.343,-0.267 -0.747,-0.408 -1.167,-0.408 -0.932,0 -1.71,0.656 -1.876,1.569 h -3.846 v -4.546 h 3.846 c 0.166,0.913 0.944,1.568 1.876,1.568 0.422,0 0.828,-0.14 1.17,-0.407 0.238,-0.176 0.52,-0.271 0.815,-0.271 0.763,0 1.384,0.622 1.384,1.384 C 1.384,-0.621 0.763,0 0,0"
           style="fill:#231f20;fill-opacity:1;fill-rule:nonzero;stroke:none"
           id="path80" />
      </g>
      <g
         id="g82"
         transform="translate(61.1865,53.0752)">
        <path
           d="M 0,0 H 3.85 V 4.544 H 0 C -0.163,3.646 -0.956,2.976 -1.869,2.976 c -0.424,0 -0.828,0.14 -1.17,0.409 -0.242,0.178 -0.524,0.271 -0.819,0.271 -0.762,0 -1.38,-0.621 -1.38,-1.384 0,-0.763 0.618,-1.384 1.38,-1.384 0.292,0 0.577,0.094 0.819,0.273 0.342,0.267 0.746,0.407 1.17,0.407 C -0.956,1.568 -0.163,0.9 0,0"
           style="fill:#231f20;fill-opacity:1;fill-rule:nonzero;stroke:none"
           id="path84" />
      </g>
      <g
         id="g86"
         transform="translate(59.3174,59.3447)">
        <path
           d="m 0,0 c -0.295,0 -0.577,-0.095 -0.818,-0.271 -0.343,-0.269 -0.747,-0.41 -1.167,-0.41 -0.932,0 -1.71,0.656 -1.876,1.569 h -3.846 v -4.544 h 3.846 c 0.166,0.913 0.944,1.568 1.876,1.568 0.422,0 0.828,-0.141 1.17,-0.409 0.238,-0.176 0.52,-0.271 0.815,-0.271 0.763,0 1.384,0.622 1.384,1.384 C 1.384,-0.621 0.763,0 0,0"
           style="fill:#231f20;fill-opacity:1;fill-rule:nonzero;stroke:none"
           id="path88" />
      </g>
      <g
         id="g90"
         transform="translate(61.1865,11.1172)">
        <path
           d="M 0,0 H 3.85 V 4.546 H 0 c -0.163,-0.9 -0.956,-1.568 -1.869,-1.568 -0.424,0 -0.828,0.14 -1.17,0.407 -0.242,0.178 -0.524,0.273 -0.819,0.273 -0.762,0 -1.38,-0.621 -1.38,-1.384 0,-0.765 0.618,-1.386 1.38,-1.386 0.292,0 0.577,0.094 0.819,0.273 0.342,0.267 0.746,0.407 1.17,0.407 C -0.956,1.568 -0.163,0.9 0,0"
           style="fill:#231f20;fill-opacity:1;fill-rule:nonzero;stroke:none"
           id="path92" />
      </g>
      <g
         id="g94"
         transform="translate(59.3174,17.3877)">
        <path
           d="m 0,0 c -0.295,0 -0.577,-0.094 -0.818,-0.272 -0.343,-0.267 -0.747,-0.409 -1.167,-0.409 -0.932,0 -1.71,0.657 -1.876,1.569 h -3.846 v -4.545 h 3.846 c 0.166,0.913 0.944,1.568 1.876,1.568 0.422,0 0.828,-0.14 1.17,-0.408 0.238,-0.175 0.52,-0.27 0.815,-0.27 0.763,0 1.384,0.621 1.384,1.384 C 1.384,-0.621 0.763,0 0,0"
           style="fill:#231f20;fill-opacity:1;fill-rule:nonzero;stroke:none"
           id="path96" />
      </g>
      <g
         id="g98"
         transform="translate(57.3281,6.7607)">
        <path
           d="m 0,0 c 0.292,0 0.577,0.094 0.819,0.272 0.342,0.267 0.746,0.409 1.17,0.409 0.913,0 1.706,-0.668 1.869,-1.569 v -0.8 C 3.695,-2.588 2.902,-3.257 1.989,-3.257 H 1.221 v -3.504 h 6.487 v 5.873 0.502 4.043 H 3.858 C 3.695,2.757 2.902,2.089 1.989,2.089 1.565,2.089 1.161,2.229 0.819,2.497 0.577,2.676 0.295,2.77 0,2.77 -0.762,2.77 -1.38,2.148 -1.38,1.386 -1.38,0.621 -0.762,0 0,0"
           style="fill:#231f20;fill-opacity:1;fill-rule:nonzero;stroke:none"
           id="path100" />
      </g>
      <g
         id="g102"
         transform="translate(59.3174,6.873)">
        <path
           d="m 0,0 c -0.295,0 -0.577,-0.094 -0.818,-0.272 -0.343,-0.267 -0.747,-0.409 -1.167,-0.409 -0.932,0 -1.71,0.657 -1.876,1.569 v 0.724 c 0.166,0.913 0.944,1.569 1.876,1.569 0.422,0 0.828,-0.141 1.17,-0.408 C -0.577,2.598 -0.295,2.504 0,2.504 0.763,2.504 1.384,3.125 1.384,3.887 1.384,4.649 0.763,5.271 0,5.271 -0.295,5.271 -0.577,5.176 -0.818,4.997 -1.161,4.73 -1.565,4.59 -1.985,4.59 c -0.932,0 -1.71,0.655 -1.876,1.568 H -7.707 V 0.888 0.43 -1.979 -3.657 -6.873 h 6.436 v 3.881 c 0,1.013 0.976,0.225 1.271,0.225 0.763,0 1.384,0.621 1.384,1.384 C 1.384,-0.621 0.763,0 0,0"
           style="fill:#231f20;fill-opacity:1;fill-rule:nonzero;stroke:none"
           id="path104" />
      </g>
      <g
         id="g106"
         transform="rotate(-7.487792,516.9778,-437.59871)">
        <path
           d="M 0,0 3.733,-0.938 4.841,3.469 1.104,4.405 C 0.729,3.574 -0.203,3.116 -1.091,3.339 -1.499,3.442 -1.856,3.678 -2.126,4.022 -2.314,4.252 -2.565,4.413 -2.854,4.483 -3.595,4.669 -4.344,4.217 -4.529,3.477 -4.715,2.736 -4.266,1.983 -3.525,1.8 -3.243,1.728 -2.945,1.75 -2.666,1.864 -2.271,2.04 -1.844,2.078 -1.434,1.976 -0.546,1.752 0.063,0.911 0,0"
           style="fill:#231f20;fill-opacity:1;fill-rule:nonzero;stroke:none"
           id="path108" />
      </g>
      <g
         id="g110"
         transform="rotate(-11.785749,365.09213,-273.70347)">
        <path
           d="M 0,0 3.671,-1.166 5.048,3.165 1.377,4.328 C 0.951,3.524 -0.009,3.124 -0.881,3.4 -1.282,3.528 -1.625,3.786 -1.872,4.146 -2.048,4.388 -2.286,4.563 -2.568,4.651 -3.297,4.882 -4.074,4.476 -4.304,3.75 -4.535,3.022 -4.134,2.242 -3.406,2.014 -3.13,1.924 -2.829,1.929 -2.544,2.026 -2.139,2.177 -1.709,2.187 -1.305,2.061 -0.436,1.783 0.119,0.904 0,0"
           style="fill:#231f20;fill-opacity:1;fill-rule:nonzero;stroke:none"
           id="path112" />
      </g>
      <g
         id="g114"
         transform="rotate(-17.247226,276.85499,-182.42161)">
        <path
           d="M 0,0 3.592,-1.39 5.232,2.85 1.641,4.238 C 1.164,3.46 0.183,3.118 -0.671,3.449 -1.063,3.602 -1.39,3.877 -1.612,4.254 -1.775,4.505 -2.004,4.696 -2.28,4.801 -2.992,5.075 -3.792,4.72 -4.065,4.008 -4.341,3.295 -3.99,2.494 -3.277,2.22 -3.005,2.114 -2.707,2.099 -2.415,2.179 -2.001,2.304 -1.571,2.288 -1.176,2.138 -0.326,1.807 0.176,0.897 0,0"
           style="fill:#231f20;fill-opacity:1;fill-rule:nonzero;stroke:none"
           id="path116" />
      </g>
      <g
         id="g118"
         transform="rotate(-19.952573,257.17899,-159.77785)">
        <path
           d="m 0,0 3.501,-1.606 1.897,4.129 -3.5,1.605 C 1.374,3.382 0.374,3.103 -0.458,3.485 -0.841,3.66 -1.147,3.957 -1.349,4.345 -1.493,4.606 -1.709,4.811 -1.979,4.933 -2.672,5.251 -3.494,4.943 -3.811,4.25 -4.131,3.557 -3.827,2.735 -3.134,2.417 -2.87,2.294 -2.572,2.262 -2.277,2.324 -1.854,2.423 -1.427,2.381 -1.044,2.207 -0.213,1.824 0.229,0.885 0,0"
           style="fill:#231f20;fill-opacity:1;fill-rule:nonzero;stroke:none"
           id="path120" />
      </g>
      <g
         id="g122"
         transform="rotate(-22.58009,242.44069,-143.98535)">
        <path
           d="M 0,0 3.395,-1.819 5.543,2.187 2.146,4.003 C 1.581,3.29 0.564,3.071 -0.244,3.504 c -0.37,0.2 -0.659,0.515 -0.835,0.914 -0.129,0.27 -0.332,0.486 -0.596,0.626 -0.672,0.359 -1.509,0.103 -1.87,-0.569 -0.36,-0.673 -0.106,-1.512 0.566,-1.871 0.256,-0.138 0.551,-0.19 0.849,-0.148 0.427,0.075 0.851,0.006 1.224,-0.191 C -0.104,1.832 0.282,0.865 0,0"
           style="fill:#231f20;fill-opacity:1;fill-rule:nonzero;stroke:none"
           id="path124" />
      </g>
      <g
         id="g126"
         transform="rotate(-22.361851,255.32283,-154.89602)">
        <path
           d="M 0,0 3.278,-2.023 5.665,1.843 2.388,3.864 C 1.778,3.188 0.753,3.033 -0.028,3.513 -0.386,3.737 -0.655,4.068 -0.806,4.478 -0.919,4.755 -1.107,4.984 -1.361,5.138 -2.011,5.539 -2.86,5.335 -3.262,4.686 -3.664,4.037 -3.463,3.184 -2.816,2.781 -2.565,2.628 -2.277,2.56 -1.977,2.584 -1.543,2.632 -1.126,2.539 -0.766,2.317 0.01,1.836 0.336,0.85 0,0"
           style="fill:#231f20;fill-opacity:1;fill-rule:nonzero;stroke:none"
           id="path128" />
      </g>
      <g
         id="g130"
         transform="rotate(-22.437911,264.91855,-164.19821)">
        <path
           d="M 0,0 3.146,-2.221 5.769,1.492 2.619,3.711 C 1.97,3.074 0.938,2.981 0.185,3.51 -0.154,3.755 -0.405,4.1 -0.53,4.519 -0.625,4.803 -0.8,5.042 -1.045,5.212 -1.666,5.652 -2.528,5.5 -2.971,4.878 -3.41,4.253 -3.263,3.391 -2.642,2.952 -2.4,2.782 -2.114,2.694 -1.813,2.701 -1.381,2.723 -0.967,2.604 -0.625,2.362 0.122,1.832 0.389,0.828 0,0"
           style="fill:#231f20;fill-opacity:1;fill-rule:nonzero;stroke:none"
           id="path132" />
      </g>
      <g
         id="g134"
         transform="rotate(-22.859083,270.38493,-170.51609)">
        <path
           d="M 0,0 3.002,-2.411 5.847,1.134 2.842,3.543 C 2.155,2.945 1.117,2.917 0.398,3.491 0.075,3.756 -0.153,4.119 -0.254,4.542 -0.329,4.832 -0.492,5.082 -0.725,5.267 -1.317,5.744 -2.189,5.646 -2.666,5.05 -3.143,4.454 -3.049,3.583 -2.456,3.107 -2.228,2.923 -1.948,2.82 -1.646,2.807 -1.211,2.801 -0.806,2.657 -0.479,2.395 0.232,1.822 0.437,0.801 0,0"
           style="fill:#231f20;fill-opacity:1;fill-rule:nonzero;stroke:none"
           id="path136" />
      </g>
      <g
         id="g138"
         transform="translate(81.0742,102.29432)">
        <path
           d="m 11.355575,-7.9800037 1.655479,-3.4777363 4.10126,1.9568307 -1.658845,3.4747919 c -0.877249,-0.2375321 -1.825095,0.186954 -2.222158,1.0149385 -0.176234,0.3800205 -0.225457,0.806403 -0.130212,1.2320287 0.05911,0.2923889 0.02019,0.5881431 -0.107913,0.853396 -0.327941,0.6905831 -1.154455,0.9811598 -1.845038,0.6532192 -0.687091,-0.3326104 -0.980613,-1.1557592 -0.655617,-1.8429767 0.126632,-0.2635701 0.336269,-0.4800632 0.600345,-0.6215868 0.389025,-0.1926385 0.69025,-0.4995404 0.871322,-0.8782988 0.393907,-0.8277742 0.133495,-1.8340971 -0.608623,-2.3646064"
           style="fill:#231f20;fill-opacity:1;fill-rule:nonzero;stroke:none"
           id="path140" />
      </g>
      <g
         id="g142"
         transform="rotate(-20.015778,322.55526,-227.55297)">
        <path
           d="M 0,0 2.686,-2.763 5.941,0.406 3.257,3.167 C 2.501,2.657 1.469,2.757 0.825,3.413 0.537,3.717 0.352,4.103 0.308,4.538 0.268,4.834 0.139,5.101 -0.071,5.314 -0.602,5.86 -1.477,5.869 -2.025,5.337 -2.571,4.804 -2.584,3.929 -2.054,3.383 -1.851,3.175 -1.584,3.037 -1.285,2.986 -0.855,2.927 -0.473,2.735 -0.182,2.435 0.455,1.777 0.534,0.74 0,0"
           style="fill:#231f20;fill-opacity:1;fill-rule:nonzero;stroke:none"
           id="path144" />
      </g>
      <g
         id="g146"
         transform="rotate(-18.017365,363.01408,-273.57929)">
        <path
           d="M 0,0 2.51,-2.922 5.954,0.041 3.441,2.961 C 2.657,2.499 1.635,2.662 1.032,3.358 0.763,3.678 0.603,4.075 0.584,4.511 0.562,4.81 0.448,5.083 0.254,5.308 -0.241,5.886 -1.116,5.949 -1.693,5.452 -2.274,4.955 -2.34,4.081 -1.845,3.504 -1.653,3.283 -1.396,3.127 -1.101,3.06 -0.678,2.975 -0.305,2.759 -0.031,2.442 0.562,1.746 0.577,0.707 0,0"
           style="fill:#231f20;fill-opacity:1;fill-rule:nonzero;stroke:none"
           id="path148" />
      </g>
      <g
         id="g150"
         transform="rotate(-16.303066,405.71881,-324.23862)">
        <path
           d="m 0,0 2.327,-3.069 3.62,2.746 -2.331,3.068 C 2.807,2.333 1.794,2.559 1.235,3.288 0.984,3.626 0.853,4.031 0.859,4.467 0.856,4.767 0.762,5.047 0.58,5.283 0.122,5.891 -0.747,6.007 -1.355,5.546 -1.964,5.085 -2.086,4.219 -1.625,3.611 -1.449,3.378 -1.202,3.209 -0.913,3.123 -0.493,3.012 -0.135,2.773 0.119,2.441 0.668,1.71 0.621,0.671 0,0"
           style="fill:#231f20;fill-opacity:1;fill-rule:nonzero;stroke:none"
           id="path152" />
      </g>
      <g
         id="g154"
         transform="rotate(-14.387638,463.07091,-393.47023)">
        <path
           d="M 0,0 2.137,-3.208 5.916,-0.69 3.78,2.516 C 2.945,2.155 1.948,2.442 1.437,3.206 1.208,3.557 1.102,3.97 1.136,4.404 1.151,4.704 1.073,4.991 0.907,5.235 0.486,5.873 -0.376,6.042 -1.01,5.618 -1.646,5.195 -1.819,4.338 -1.398,3.703 -1.235,3.46 -1,3.275 -0.718,3.171 -0.304,3.037 0.038,2.776 0.271,2.428 0.775,1.664 0.662,0.631 0,0"
           style="fill:#231f20;fill-opacity:1;fill-rule:nonzero;stroke:none"
           id="path156" />
      </g>
      <g
         id="g158"
         transform="rotate(-11.861579,561.57388,-513.13667)">
        <path
           d="m 0,0 1.933,-3.334 3.93,2.282 -1.935,3.331 C 3.071,1.968 2.096,2.317 1.631,3.109 1.424,3.476 1.343,3.893 1.402,4.326 1.437,4.624 1.377,4.916 1.224,5.169 0.844,5.83 -0.006,6.053 -0.665,5.668 -1.327,5.286 -1.553,4.44 -1.17,3.782 -1.022,3.529 -0.8,3.328 -0.523,3.209 -0.119,3.047 0.207,2.767 0.417,2.406 0.875,1.612 0.696,0.587 0,0"
           style="fill:#231f20;fill-opacity:1;fill-rule:nonzero;stroke:none"
           id="path160" />
      </g>
      <g
         id="g162"
         transform="rotate(-9.9581531,670.00665,-649.73669)">
        <path
           d="M 0,0 1.726,-3.446 5.788,-1.41 4.06,2.033 C 3.188,1.776 2.233,2.184 1.819,3.004 1.635,3.382 1.581,3.805 1.669,4.232 1.72,4.527 1.679,4.822 1.541,5.085 1.202,5.768 0.367,6.042 -0.313,5.7 -0.997,5.356 -1.273,4.527 -0.935,3.846 -0.803,3.586 -0.593,3.373 -0.322,3.236 0.069,3.049 0.38,2.75 0.565,2.375 0.973,1.556 0.734,0.543 0,0"
           style="fill:#231f20;fill-opacity:1;fill-rule:nonzero;stroke:none"
           id="path164" />
      </g>
      <g
         id="g166"
         transform="rotate(-7.3908669,896.84189,-933.71707)">
        <path
           d="M 0,0 1.509,-3.545 5.69,-1.763 4.175,1.782 C 3.29,1.578 2.361,2.043 1.998,2.886 1.838,3.275 1.81,3.702 1.923,4.122 1.991,4.414 1.97,4.71 1.848,4.981 1.553,5.684 0.737,6.009 0.037,5.709 -0.669,5.408 -0.995,4.599 -0.7,3.897 -0.584,3.628 -0.386,3.403 -0.126,3.25 0.254,3.04 0.546,2.723 0.709,2.337 1.066,1.493 0.762,0.499 0,0"
           style="fill:#231f20;fill-opacity:1;fill-rule:nonzero;stroke:none"
           id="path168" />
      </g>
      <g
         id="g170"
         transform="rotate(-4.3484424,1502.0104,-1693.822)">
        <path
           d="M 0,0 1.292,-3.631 5.574,-2.109 4.278,1.52 C 3.382,1.373 2.487,1.895 2.174,2.759 2.036,3.157 2.036,3.583 2.177,3.995 2.262,4.282 2.259,4.58 2.152,4.857 1.901,5.576 1.107,5.953 0.389,5.695 -0.332,5.438 -0.709,4.65 -0.455,3.932 -0.357,3.656 -0.173,3.421 0.075,3.251 0.442,3.018 0.712,2.684 0.854,2.289 1.157,1.426 0.794,0.45 0,0"
           style="fill:#231f20;fill-opacity:1;fill-rule:nonzero;stroke:none"
           id="path172" />
      </g>
      <g
         id="g174"
         transform="rotate(-2.1212502,3051.2641,-3667.29)">
        <path
           d="m 0,0 1.066,-3.705 4.367,1.257 -1.07,3.703 C 3.46,1.161 2.597,1.738 2.34,2.619 2.227,3.024 2.252,3.451 2.418,3.854 2.519,4.134 2.534,4.432 2.446,4.715 2.239,5.449 1.471,5.872 0.737,5.659 0,5.449 -0.421,4.683 -0.214,3.953 -0.136,3.67 0.037,3.422 0.275,3.24 0.627,2.983 0.875,2.632 0.991,2.23 1.242,1.352 0.818,0.398 0,0"
           style="fill:#231f20;fill-opacity:1;fill-rule:nonzero;stroke:none"
           id="path176" />
      </g>
      <g
         id="g178"
         transform="rotate(2.5175767,-1366.884,1293.1836)">
        <path
           d="m 0,0 -3.786,-0.708 -0.831,4.467 3.783,0.706 C -0.508,3.613 0.393,3.099 1.293,3.266 1.707,3.344 2.08,3.557 2.368,3.883 2.572,4.103 2.83,4.247 3.121,4.301 3.871,4.44 4.593,3.942 4.733,3.193 4.872,2.443 4.379,1.719 3.63,1.581 3.344,1.524 3.046,1.565 2.776,1.696 2.391,1.897 1.967,1.96 1.55,1.885 0.652,1.716 -0.006,0.912 0,0"
           style="fill:#231f20;fill-opacity:1;fill-rule:nonzero;stroke:none"
           id="path180" />
      </g>
      <g
         id="g182"
         transform="rotate(4.9462665,-742.35112,661.57557)">
        <path
           d="M 0,0 -3.736,-0.938 -4.84,3.47 -1.107,4.404 C -0.73,3.575 0.201,3.117 1.092,3.34 1.499,3.443 1.857,3.677 2.124,4.021 2.315,4.252 2.563,4.414 2.852,4.484 3.592,4.67 4.342,4.218 4.526,3.478 4.715,2.737 4.267,1.982 3.525,1.801 3.243,1.729 2.945,1.751 2.666,1.863 2.268,2.039 1.842,2.077 1.431,1.977 0.546,1.752 -0.063,0.91 0,0"
           style="fill:#231f20;fill-opacity:1;fill-rule:nonzero;stroke:none"
           id="path184" />
      </g>
      <g
         id="g186"
         transform="rotate(5.4512604,-725.46448,588.2261)">
        <path
           d="m 0,0 -3.67,-1.164 -1.374,4.331 3.67,1.163 C -0.947,3.525 0.009,3.124 0.885,3.401 1.286,3.53 1.628,3.786 1.872,4.146 2.048,4.389 2.29,4.564 2.572,4.652 3.3,4.884 4.074,4.478 4.307,3.752 4.539,3.023 4.138,2.243 3.409,2.014 3.131,1.926 2.832,1.929 2.547,2.026 2.139,2.177 1.713,2.188 1.308,2.061 0.436,1.785 -0.119,0.906 0,0"
           style="fill:#231f20;fill-opacity:1;fill-rule:nonzero;stroke:none"
           id="path188" />
      </g>
      <g
         id="g190"
         transform="rotate(6.2862236,-670.70439,497.48075)">
        <path
           d="m 0,0 -3.592,-1.388 -1.637,4.24 3.591,1.386 C -1.164,3.46 -0.182,3.12 0.675,3.451 1.066,3.603 1.393,3.879 1.615,4.254 1.775,4.507 2.005,4.696 2.28,4.803 2.992,5.077 3.792,4.722 4.068,4.009 4.345,3.297 3.99,2.494 3.278,2.222 3.008,2.114 2.707,2.099 2.419,2.181 2.001,2.306 1.574,2.29 1.18,2.14 0.326,1.808 -0.173,0.897 0,0"
           style="fill:#231f20;fill-opacity:1;fill-rule:nonzero;stroke:none"
           id="path192" />
      </g>
      <g
         id="g194"
         transform="rotate(6.3115964,-711.24288,476.84476)">
        <path
           d="m 0,0 -3.498,-1.608 -1.898,4.131 3.501,1.605 C -1.374,3.381 -0.373,3.101 0.461,3.483 0.841,3.66 1.151,3.957 1.349,4.344 1.496,4.606 1.713,4.81 1.982,4.933 2.676,5.249 3.494,4.943 3.814,4.248 4.131,3.556 3.83,2.733 3.137,2.417 2.87,2.294 2.572,2.26 2.28,2.322 1.856,2.423 1.431,2.381 1.045,2.206 0.217,1.824 -0.229,0.883 0,0"
           style="fill:#231f20;fill-opacity:1;fill-rule:nonzero;stroke:none"
           id="path196" />
      </g>
      <g
         id="g198"
         transform="rotate(7.3102814,-646.81845,397.58366)">
        <path
           d="M 0,0 -3.395,-1.819 -5.54,2.187 -2.146,4.003 C -1.578,3.291 -0.562,3.072 0.245,3.504 0.615,3.705 0.906,4.019 1.079,4.42 1.211,4.689 1.415,4.906 1.675,5.044 2.347,5.405 3.184,5.147 3.545,4.477 3.905,3.802 3.654,2.965 2.983,2.604 2.726,2.466 2.431,2.415 2.133,2.458 1.703,2.531 1.28,2.464 0.91,2.265 0.104,1.832 -0.282,0.867 0,0"
           style="fill:#231f20;fill-opacity:1;fill-rule:nonzero;stroke:none"
           id="path200" />
      </g>
      <g
         id="g202"
         transform="rotate(6.4974895,-769.78492,418.15204)">
        <path
           d="m 0,0 -3.274,-2.024 -2.391,3.867 3.278,2.022 C -1.778,3.189 -0.75,3.032 0.031,3.514 0.386,3.738 0.659,4.067 0.807,4.478 0.919,4.754 1.11,4.983 1.364,5.137 2.011,5.539 2.864,5.334 3.266,4.685 3.664,4.036 3.466,3.183 2.817,2.783 2.569,2.629 2.277,2.56 1.977,2.583 1.547,2.632 1.126,2.54 0.769,2.317 -0.01,1.837 -0.336,0.849 0,0"
           style="fill:#231f20;fill-opacity:1;fill-rule:nonzero;stroke:none"
           id="path204" />
      </g>
      <g
         id="g206"
         transform="rotate(6.9572784,-753.01866,367.66509)">
        <path
           d="m 0,0 -3.146,-2.223 -2.619,3.714 3.146,2.22 C -1.97,3.072 -0.935,2.981 -0.185,3.508 0.157,3.753 0.408,4.1 0.53,4.519 0.628,4.802 0.804,5.042 1.045,5.212 1.669,5.651 2.532,5.5 2.971,4.876 3.41,4.252 3.263,3.389 2.642,2.95 2.403,2.781 2.118,2.694 1.816,2.701 1.381,2.721 0.97,2.602 0.625,2.36 -0.122,1.832 -0.386,0.826 0,0"
           style="fill:#231f20;fill-opacity:1;fill-rule:nonzero;stroke:none"
           id="path208" />
      </g>
      <g
         id="g210"
         transform="rotate(6.3961657,-857.66539,367.14946)">
        <path
           d="m 0,0 -3.005,-2.411 -2.842,3.545 3.005,2.409 C -2.154,2.946 -1.116,2.917 -0.401,3.49 -0.075,3.756 0.154,4.117 0.251,4.541 0.33,4.833 0.489,5.081 0.722,5.266 1.317,5.742 2.187,5.645 2.667,5.049 3.144,4.453 3.049,3.584 2.456,3.107 2.228,2.924 1.945,2.819 1.644,2.806 1.211,2.801 0.807,2.657 0.478,2.395 -0.235,1.821 -0.438,0.802 0,0"
           style="fill:#231f20;fill-opacity:1;fill-rule:nonzero;stroke:none"
           id="path212" />
      </g>
      <g
         id="g214"
         transform="rotate(6.3574664,-897.61605,336.98658)">
        <path
           d="m 0,0 -2.852,-2.591 -3.054,3.362 2.85,2.59 c 0.722,-0.553 1.76,-0.519 2.441,0.099 0.307,0.284 0.514,0.659 0.587,1.088 C 0.031,4.843 0.176,5.101 0.398,5.3 0.96,5.813 1.835,5.769 2.35,5.204 2.864,4.638 2.823,3.764 2.259,3.251 2.042,3.055 1.77,2.933 1.468,2.901 1.035,2.87 0.64,2.701 0.329,2.418 -0.345,1.804 -0.486,0.771 0,0"
           style="fill:#231f20;fill-opacity:1;fill-rule:nonzero;stroke:none"
           id="path216" />
      </g>
      <g
         id="g218"
         transform="rotate(5.9662515,-992.22137,320.47037)">
        <path
           d="m 0,0 -2.686,-2.762 -3.255,3.17 2.688,2.76 c 0.753,-0.51 1.788,-0.411 2.428,0.247 0.292,0.302 0.473,0.689 0.52,1.124 0.038,0.296 0.17,0.563 0.377,0.774 C 0.602,5.859 1.48,5.871 2.026,5.339 2.575,4.806 2.588,3.93 2.058,3.385 1.854,3.174 1.587,3.036 1.289,2.986 0.859,2.928 0.474,2.735 0.182,2.434 -0.455,1.778 -0.533,0.74 0,0"
           style="fill:#231f20;fill-opacity:1;fill-rule:nonzero;stroke:none"
           id="path220" />
      </g>
      <g
         id="g222"
         transform="rotate(4.9540753,-1237.548,329.44564)">
        <path
           d="m 0,0 -2.513,-2.923 -3.444,2.964 2.513,2.92 c 0.784,-0.462 1.81,-0.299 2.409,0.395 0.273,0.321 0.43,0.719 0.449,1.155 0.022,0.298 0.135,0.572 0.329,0.797 C 0.238,5.885 1.114,5.949 1.694,5.452 2.271,4.953 2.341,4.081 1.845,3.504 1.653,3.281 1.396,3.127 1.102,3.059 0.675,2.974 0.305,2.759 0.031,2.44 -0.564,1.746 -0.58,0.706 0,0"
           style="fill:#231f20;fill-opacity:1;fill-rule:nonzero;stroke:none"
           id="path224" />
      </g>
      <g
         id="g226"
         transform="rotate(4.4679092,-1415.2477,307.78561)">
        <path
           d="m 0,0 -2.328,-3.069 -3.619,2.744 2.327,3.068 c 0.812,-0.41 1.825,-0.185 2.381,0.545 0.251,0.337 0.385,0.741 0.376,1.177 0.004,0.302 0.1,0.582 0.279,0.816 0.461,0.609 1.33,0.726 1.938,0.265 C 1.964,5.083 2.083,4.218 1.625,3.61 1.446,3.377 1.201,3.208 0.909,3.123 0.492,3.011 0.132,2.773 -0.119,2.439 -0.672,1.708 -0.621,0.67 0,0"
           style="fill:#231f20;fill-opacity:1;fill-rule:nonzero;stroke:none"
           id="path228" />
      </g>
      <g
         id="g230"
         transform="rotate(1.8223491,-3576.5533,534.40193)">
        <path
           d="m 0,0 -2.133,-3.206 -3.783,2.518 2.136,3.205 c 0.835,-0.362 1.832,-0.074 2.343,0.689 0.229,0.351 0.339,0.765 0.304,1.2 -0.015,0.299 0.064,0.585 0.23,0.831 0.42,0.635 1.279,0.805 1.916,0.383 C 1.649,5.194 1.822,4.338 1.402,3.705 1.239,3.46 1.004,3.275 0.718,3.173 0.308,3.036 -0.038,2.776 -0.267,2.428 -0.771,1.666 -0.659,0.63 0,0"
           style="fill:#231f20;fill-opacity:1;fill-rule:nonzero;stroke:none"
           id="path232" />
      </g>
      <g
         id="g234"
         transform="rotate(1.8487876,-3612.2452,391.07078)">
        <path
           d="m 0,0 -1.935,-3.333 -3.927,2.282 1.935,3.331 c 0.854,-0.31 1.832,0.038 2.296,0.83 0.207,0.366 0.289,0.784 0.226,1.216 -0.032,0.298 0.028,0.589 0.178,0.843 0.38,0.662 1.231,0.885 1.889,0.501 C 1.324,5.286 1.55,4.441 1.171,3.783 1.023,3.529 0.797,3.33 0.521,3.209 0.116,3.049 -0.21,2.768 -0.417,2.406 -0.875,1.612 -0.699,0.588 0,0"
           style="fill:#231f20;fill-opacity:1;fill-rule:nonzero;stroke:none"
           id="path236" />
      </g>
      <g
         id="g238"
         transform="translate(6.0712842,119.19749)">
        <path
           d="m 0,0 -1.726,-3.444 -4.062,2.035 1.728,3.443 c 0.872,-0.257 1.827,0.151 2.241,0.971 0.184,0.376 0.241,0.8 0.153,1.226 -0.05,0.295 -0.01,0.59 0.126,0.854 C -1.202,5.769 -0.367,6.042 0.313,5.7 1,5.358 1.276,4.528 0.938,3.847 0.806,3.585 0.593,3.372 0.326,3.237 -0.069,3.049 -0.377,2.751 -0.564,2.376 -0.973,1.556 -0.731,0.544 0,0"
           style="fill:#231f20;fill-opacity:1;fill-rule:nonzero;stroke:none"
           id="path240" />
      </g>
      <g
         id="g242"
         transform="translate(1.2916125,121.60329)">
        <path
           d="m 0,0 -1.513,-3.544 -4.177,1.783 1.511,3.543 c 0.888,-0.204 1.814,0.263 2.177,1.106 0.163,0.389 0.191,0.814 0.075,1.234 -0.065,0.292 -0.043,0.59 0.076,0.859 0.298,0.703 1.114,1.029 1.813,0.728 C 0.668,5.408 0.994,4.599 0.696,3.899 0.583,3.629 0.383,3.404 0.125,3.25 -0.258,3.04 -0.546,2.723 -0.709,2.337 -1.066,1.495 -0.766,0.499 0,0"
           style="fill:#231f20;fill-opacity:1;fill-rule:nonzero;stroke:none"
           id="path244" />
      </g>
      <g
         id="g246"
         transform="translate(63.2637,64.0137)">
        <path
           d="m 0,0 h -9.743 c -2.578,0 -4.671,-2.093 -4.671,-4.671 v -9.451 c 0,-1.998 1.261,-3.69 3.024,-4.357 v -3.134 c 0,-1.763 1.427,-3.187 3.19,-3.187 h 6.653 c 1.763,0 3.191,1.424 3.191,3.187 v 3.134 c 1.765,0.665 3.027,2.359 3.027,4.357 v 9.451 C 4.671,-2.093 2.581,0 0,0 m 0,-0.803 c 2.133,0 3.867,-1.735 3.867,-3.868 v -9.451 c 0,-1.615 -0.984,-3.03 -2.506,-3.607 l -0.52,-0.195 v -0.555 -3.134 c 0,-1.315 -1.07,-2.384 -2.388,-2.384 H -8.2 c -1.315,0 -2.387,1.069 -2.387,2.384 v 3.134 0.555 l -0.517,0.195 c -1.522,0.577 -2.507,1.992 -2.507,3.607 v 9.451 c 0,2.133 1.735,3.868 3.868,3.868 H 0"
           style="fill:#f1f2f2;fill-opacity:1;fill-rule:nonzero;stroke:none"
           id="path248" />
      </g>
      <g
         id="g250"
         transform="translate(67.1309,49.8916)">
        <path
           d="m 0,0 v 9.451 c 0,2.133 -1.734,3.868 -3.867,3.868 h -9.743 c -2.133,0 -3.869,-1.735 -3.869,-3.868 V 0 c 0,-1.615 0.986,-3.03 2.507,-3.607 l 0.518,-0.195 v -0.555 -3.134 c 0,-1.315 1.072,-2.384 2.387,-2.384 h 6.653 c 1.317,0 2.388,1.069 2.388,2.384 v 3.134 0.555 l 0.52,0.195 C -0.984,-3.03 0,-1.615 0,0"
           style="fill:#231f20;fill-opacity:1;fill-rule:nonzero;stroke:none"
           id="path252" />
      </g>
      <g
         id="g254"
         transform="translate(58.3916,40.9736)">
        <path
           d="M 0,0 C -2.632,0 -4.774,2.139 -4.774,4.771 V 16.54 c 0,2.632 2.142,4.774 4.774,4.774 2.632,0 4.774,-2.142 4.774,-4.774 V 4.771 C 4.774,2.139 2.632,0 0,0"
           style="fill:#f1f2f2;fill-opacity:1;fill-rule:nonzero;stroke:none"
           id="path256" />
      </g>
      <g
         id="g258"
         transform="translate(75.3594,18.8584)">
        <path
           d="m 0,0 c -0.295,-0.8 -0.882,-1.439 -1.656,-1.797 l -3.473,-1.612 c -0.427,-0.198 -0.878,-0.299 -1.343,-0.299 -1.239,0 -2.378,0.729 -2.901,1.857 l -1.901,4.091 c -0.744,1.6 -0.044,3.507 1.556,4.25 l 3.469,1.61 c 0.427,0.197 0.875,0.297 1.343,0.297 1.242,0 2.381,-0.73 2.904,-1.856 L -0.104,2.447 C 0.257,1.672 0.295,0.803 0,0 M 2.381,2.901 -9.614,28.749 c -0.531,1.139 -1.462,2.018 -2.579,2.507 V 27.63 c 0.421,-0.418 0.781,-0.901 1.038,-1.453 l 0.126,-0.273 c 0.571,-1.229 0.627,-2.603 0.16,-3.877 -0.465,-1.27 -1.4,-2.287 -2.626,-2.857 -0.674,-0.315 -1.393,-0.471 -2.13,-0.471 -1.97,0 -3.776,1.152 -4.607,2.936 l -0.123,0.266 c -0.327,0.706 -0.461,1.447 -0.456,2.178 -0.577,0.79 -0.931,1.756 -0.931,2.807 v 1.707 c -1.888,-1.403 -2.6,-3.988 -1.574,-6.202 l 11.998,-25.854 c 0.828,-1.781 2.631,-2.933 4.598,-2.933 h 0.004 c 0.737,0 1.455,0.16 2.13,0.474 l 4.501,2.086 c 2.538,1.176 3.646,4.2 2.466,6.737"
           style="fill:#231f20;fill-opacity:1;fill-rule:nonzero;stroke:none"
           id="path260" />
      </g>
      <g
         id="g262"
         transform="translate(75.1055,15.3857)">
        <path
           d="m 0,0 -4.502,-2.086 c -0.637,-0.295 -1.305,-0.435 -1.964,-0.435 -1.76,0 -3.444,1 -4.234,2.7 l -11.998,25.854 c -1.086,2.337 -0.07,5.113 2.27,6.201 l 4.502,2.086 c 0.637,0.295 1.305,0.437 1.963,0.437 1.76,0 3.448,-1.001 4.238,-2.704 L 2.271,6.205 C 3.356,3.865 2.34,1.086 0,0 M 2.998,6.541 -8.997,32.392 c -0.894,1.922 -2.842,3.168 -4.966,3.168 -0.796,0 -1.571,-0.173 -2.302,-0.511 l -4.499,-2.087 c -2.738,-1.27 -3.933,-4.532 -2.663,-7.268 L -11.428,-0.16 c 0.894,-1.922 2.842,-3.165 4.962,-3.165 0.8,0 1.575,0.173 2.303,0.512 l 4.502,2.085 c 2.738,1.271 3.93,4.53 2.659,7.269"
           style="fill:#f1f2f2;fill-opacity:1;fill-rule:nonzero;stroke:none"
           id="path264" />
      </g>
      <g
         id="g266"
         transform="translate(61.6953,38.3916)">
        <path
           d="m 0,0 c -0.621,-0.288 -1.283,-0.433 -1.961,-0.433 -1.812,0 -3.478,1.061 -4.244,2.704 l -0.122,0.267 c -1.082,2.337 -0.063,5.119 2.27,6.204 0.621,0.289 1.284,0.434 1.961,0.434 1.814,0 3.479,-1.061 4.244,-2.704 L 2.268,6.208 C 2.795,5.072 2.848,3.802 2.418,2.632 1.988,1.462 1.132,0.527 0,0 M 2.999,6.54 2.876,6.811 c -0.929,1.995 -2.904,3.168 -4.972,3.168 -0.768,0 -1.552,-0.164 -2.299,-0.508 -2.742,-1.275 -3.93,-4.528 -2.66,-7.272 l 0.122,-0.266 c 0.929,-1.996 2.905,-3.168 4.972,-3.168 0.769,0 1.553,0.163 2.3,0.507 2.738,1.274 3.933,4.527 2.66,7.268"
           style="fill:#f1f2f2;fill-opacity:1;fill-rule:nonzero;stroke:none"
           id="path268" />
      </g>
      <g
         id="g270"
         transform="translate(74.9824,18.9971)">
        <path
           d="m 0,0 c -0.257,-0.7 -0.771,-1.259 -1.449,-1.572 l -3.473,-1.613 c -0.373,-0.172 -0.767,-0.259 -1.173,-0.259 -1.085,0 -2.079,0.636 -2.537,1.621 l -1.901,4.094 c -0.65,1.399 -0.041,3.068 1.361,3.717 l 3.47,1.609 c 0.37,0.173 0.764,0.26 1.173,0.26 1.085,0 2.083,-0.636 2.538,-1.625 l 1.9,-4.093 C 0.227,1.461 0.258,0.702 0,0 m -1.261,6.571 c -0.608,1.315 -1.91,2.089 -3.268,2.089 -0.508,0 -1.023,-0.109 -1.512,-0.336 l -3.47,-1.608 c -1.803,-0.838 -2.588,-2.984 -1.75,-4.784 l 1.901,-4.09 c 0.608,-1.315 1.907,-2.09 3.265,-2.09 0.509,0 1.023,0.11 1.512,0.336 L -1.11,-2.3 c 1.803,0.834 2.585,2.977 1.747,4.778 z"
           style="fill:#f1f2f2;fill-opacity:1;fill-rule:nonzero;stroke:none"
           id="path272" />
      </g>
      <g
         id="g274"
         transform="translate(62.0684,45.7441)">
        <path
           d="m 0,0 c 0,-2.029 -1.646,-3.676 -3.677,-3.676 -2.026,0 -3.676,1.647 -3.676,3.676 v 11.77 c 0,2.03 1.65,3.676 3.676,3.676 C -1.646,15.446 0,13.8 0,11.77 Z"
           style="fill:#231f20;fill-opacity:1;fill-rule:nonzero;stroke:none"
           id="path276" />
      </g>
      <g
         id="g1362"
         transform="rotate(-9.5886748,736.92775,-796.22466)">
        <path
           d="M 0,0 1.509,-3.545 5.69,-1.763 4.175,1.782 C 3.29,1.578 2.361,2.043 1.998,2.886 1.838,3.275 1.81,3.702 1.923,4.122 1.991,4.414 1.97,4.71 1.848,4.981 1.553,5.684 0.737,6.009 0.037,5.709 -0.669,5.408 -0.995,4.599 -0.7,3.897 -0.584,3.628 -0.386,3.403 -0.126,3.25 0.254,3.04 0.546,2.723 0.709,2.337 1.066,1.493 0.762,0.499 0,0"
           style="fill:#231f20;fill-opacity:1;fill-rule:nonzero;stroke:none"
           id="path1360" />
      </g>
      <g
         id="g1366"
         transform="rotate(-7.2870736,960.26776,-1106.4802)">
        <path
           d="M 0,0 1.292,-3.631 5.574,-2.109 4.278,1.52 C 3.382,1.373 2.487,1.895 2.174,2.759 2.036,3.157 2.036,3.583 2.177,3.995 2.262,4.282 2.259,4.58 2.152,4.857 1.901,5.576 1.107,5.953 0.389,5.695 -0.332,5.438 -0.709,4.65 -0.455,3.932 -0.357,3.656 -0.173,3.421 0.075,3.251 0.442,3.018 0.712,2.684 0.854,2.289 1.157,1.426 0.794,0.45 0,0"
           style="fill:#231f20;fill-opacity:1;fill-rule:nonzero;stroke:none"
           id="path1364" />
      </g>
      <g
         id="g1370"
         transform="rotate(-4.3190581,1588.196,-1974.2603)">
        <path
           d="m 0,0 1.066,-3.705 4.367,1.257 -1.07,3.703 C 3.46,1.161 2.597,1.738 2.34,2.619 2.227,3.024 2.252,3.451 2.418,3.854 2.519,4.134 2.534,4.432 2.446,4.715 2.239,5.449 1.471,5.872 0.737,5.659 0,5.449 -0.421,4.683 -0.214,3.953 -0.136,3.67 0.037,3.422 0.275,3.24 0.627,2.983 0.875,2.632 0.991,2.23 1.242,1.352 0.818,0.398 0,0"
           style="fill:#231f20;fill-opacity:1;fill-rule:nonzero;stroke:none"
           id="path1368" />
      </g>
      <g
         id="g1374"
         transform="rotate(-11.335779,658.87399,-739.96642)">
        <path
           d="M 0,0 1.509,-3.545 5.69,-1.763 4.175,1.782 C 3.29,1.578 2.361,2.043 1.998,2.886 1.838,3.275 1.81,3.702 1.923,4.122 1.991,4.414 1.97,4.71 1.848,4.981 1.553,5.684 0.737,6.009 0.037,5.709 -0.669,5.408 -0.995,4.599 -0.7,3.897 -0.584,3.628 -0.386,3.403 -0.126,3.25 0.254,3.04 0.546,2.723 0.709,2.337 1.066,1.493 0.762,0.499 0,0"
           style="fill:#231f20;fill-opacity:1;fill-rule:nonzero;stroke:none"
           id="path1372" />
      </g>
      <g
         id="g1378"
         transform="rotate(-9.0341773,816.85974,-976.78896)">
        <path
           d="M 0,0 1.292,-3.631 5.574,-2.109 4.278,1.52 C 3.382,1.373 2.487,1.895 2.174,2.759 2.036,3.157 2.036,3.583 2.177,3.995 2.262,4.282 2.259,4.58 2.152,4.857 1.901,5.576 1.107,5.953 0.389,5.695 -0.332,5.438 -0.709,4.65 -0.455,3.932 -0.357,3.656 -0.173,3.421 0.075,3.251 0.442,3.018 0.712,2.684 0.854,2.289 1.157,1.426 0.794,0.45 0,0"
           style="fill:#231f20;fill-opacity:1;fill-rule:nonzero;stroke:none"
           id="path1376" />
      </g>
      <g
         id="g1382"
         transform="rotate(-6.0661618,1189.6061,-1533.2068)">
        <path
           d="m 0,0 1.066,-3.705 4.367,1.257 -1.07,3.703 C 3.46,1.161 2.597,1.738 2.34,2.619 2.227,3.024 2.252,3.451 2.418,3.854 2.519,4.134 2.534,4.432 2.446,4.715 2.239,5.449 1.471,5.872 0.737,5.659 0,5.449 -0.421,4.683 -0.214,3.953 -0.136,3.67 0.037,3.422 0.275,3.24 0.627,2.983 0.875,2.632 0.991,2.23 1.242,1.352 0.818,0.398 0,0"
           style="fill:#231f20;fill-opacity:1;fill-rule:nonzero;stroke:none"
           id="path1380" />
      </g>
      <g
         id="g1386"
         transform="rotate(-13.533587,584.27463,-673.37877)">
        <path
           d="M 0,0 1.509,-3.545 5.69,-1.763 4.175,1.782 C 3.29,1.578 2.361,2.043 1.998,2.886 1.838,3.275 1.81,3.702 1.923,4.122 1.991,4.414 1.97,4.71 1.848,4.981 1.553,5.684 0.737,6.009 0.037,5.709 -0.669,5.408 -0.995,4.599 -0.7,3.897 -0.584,3.628 -0.386,3.403 -0.126,3.25 0.254,3.04 0.546,2.723 0.709,2.337 1.066,1.493 0.762,0.499 0,0"
           style="fill:#231f20;fill-opacity:1;fill-rule:nonzero;stroke:none"
           id="path1384" />
      </g>
      <g
         id="g1390"
         transform="rotate(-11.231986,694.40807,-850.97218)">
        <path
           d="M 0,0 1.292,-3.631 5.574,-2.109 4.278,1.52 C 3.382,1.373 2.487,1.895 2.174,2.759 2.036,3.157 2.036,3.583 2.177,3.995 2.262,4.282 2.259,4.58 2.152,4.857 1.901,5.576 1.107,5.953 0.389,5.695 -0.332,5.438 -0.709,4.65 -0.455,3.932 -0.357,3.656 -0.173,3.421 0.075,3.251 0.442,3.018 0.712,2.684 0.854,2.289 1.157,1.426 0.794,0.45 0,0"
           style="fill:#231f20;fill-opacity:1;fill-rule:nonzero;stroke:none"
           id="path1388" />
      </g>
      <g
         id="g1394"
         transform="rotate(-8.2639697,921.22548,-1215.4112)">
        <path
           d="m 0,0 1.066,-3.705 4.367,1.257 -1.07,3.703 C 3.46,1.161 2.597,1.738 2.34,2.619 2.227,3.024 2.252,3.451 2.418,3.854 2.519,4.134 2.534,4.432 2.446,4.715 2.239,5.449 1.471,5.872 0.737,5.659 0,5.449 -0.421,4.683 -0.214,3.953 -0.136,3.67 0.037,3.422 0.275,3.24 0.627,2.983 0.875,2.632 0.991,2.23 1.242,1.352 0.818,0.398 0,0"
           style="fill:#231f20;fill-opacity:1;fill-rule:nonzero;stroke:none"
           id="path1392" />
      </g>
      <g
         id="g1398"
         transform="rotate(-10.512087,749.92546,-969.03436)">
        <path
           d="M 0,0 1.292,-3.631 5.574,-2.109 4.278,1.52 C 3.382,1.373 2.487,1.895 2.174,2.759 2.036,3.157 2.036,3.583 2.177,3.995 2.262,4.282 2.259,4.58 2.152,4.857 1.901,5.576 1.107,5.953 0.389,5.695 -0.332,5.438 -0.709,4.65 -0.455,3.932 -0.357,3.656 -0.173,3.421 0.075,3.251 0.442,3.018 0.712,2.684 0.854,2.289 1.157,1.426 0.794,0.45 0,0"
           style="fill:#231f20;fill-opacity:1;fill-rule:nonzero;stroke:none"
           id="path1396" />
      </g>
      <g
         id="g1402"
         transform="rotate(-7.5440716,1017.5806,-1414.9636)">
        <path
           d="m 0,0 1.066,-3.705 4.367,1.257 -1.07,3.703 C 3.46,1.161 2.597,1.738 2.34,2.619 2.227,3.024 2.252,3.451 2.418,3.854 2.519,4.134 2.534,4.432 2.446,4.715 2.239,5.449 1.471,5.872 0.737,5.659 0,5.449 -0.421,4.683 -0.214,3.953 -0.136,3.67 0.037,3.422 0.275,3.24 0.627,2.983 0.875,2.632 0.991,2.23 1.242,1.352 0.818,0.398 0,0"
           style="fill:#231f20;fill-opacity:1;fill-rule:nonzero;stroke:none"
           id="path1400" />
      </g>
      <g
         id="g1406"
         transform="rotate(-15.011497,563.29567,-696.85977)">
        <path
           d="M 0,0 1.509,-3.545 5.69,-1.763 4.175,1.782 C 3.29,1.578 2.361,2.043 1.998,2.886 1.838,3.275 1.81,3.702 1.923,4.122 1.991,4.414 1.97,4.71 1.848,4.981 1.553,5.684 0.737,6.009 0.037,5.709 -0.669,5.408 -0.995,4.599 -0.7,3.897 -0.584,3.628 -0.386,3.403 -0.126,3.25 0.254,3.04 0.546,2.723 0.709,2.337 1.066,1.493 0.762,0.499 0,0"
           style="fill:#231f20;fill-opacity:1;fill-rule:nonzero;stroke:none"
           id="path1404" />
      </g>
      <g
         id="g1410"
         transform="rotate(-12.709896,654.30236,-858.8367)">
        <path
           d="M 0,0 1.292,-3.631 5.574,-2.109 4.278,1.52 C 3.382,1.373 2.487,1.895 2.174,2.759 2.036,3.157 2.036,3.583 2.177,3.995 2.262,4.282 2.259,4.58 2.152,4.857 1.901,5.576 1.107,5.953 0.389,5.695 -0.332,5.438 -0.709,4.65 -0.455,3.932 -0.357,3.656 -0.173,3.421 0.075,3.251 0.442,3.018 0.712,2.684 0.854,2.289 1.157,1.426 0.794,0.45 0,0"
           style="fill:#231f20;fill-opacity:1;fill-rule:nonzero;stroke:none"
           id="path1408" />
      </g>
      <g
         id="g1414"
         transform="rotate(-8.9471987,894.84859,-1281.7169)">
        <path
           d="m 0,0 1.066,-3.705 4.367,1.257 -1.07,3.703 C 3.46,1.161 2.597,1.738 2.34,2.619 2.227,3.024 2.252,3.451 2.418,3.854 2.519,4.134 2.534,4.432 2.446,4.715 2.239,5.449 1.471,5.872 0.737,5.659 0,5.449 -0.421,4.683 -0.214,3.953 -0.136,3.67 0.037,3.422 0.275,3.24 0.627,2.983 0.875,2.632 0.991,2.23 1.242,1.352 0.818,0.398 0,0"
           style="fill:#231f20;fill-opacity:1;fill-rule:nonzero;stroke:none"
           id="path1412" />
      </g>
      <g
         id="g1580"
         transform="rotate(-8.9471987,902.39071,-1314.8967)">
        <path
           d="m 0,0 1.066,-3.705 4.367,1.257 -1.07,3.703 C 3.46,1.161 2.597,1.738 2.34,2.619 2.227,3.024 2.252,3.451 2.418,3.854 2.519,4.134 2.534,4.432 2.446,4.715 2.239,5.449 1.471,5.872 0.737,5.659 0,5.449 -0.421,4.683 -0.214,3.953 -0.136,3.67 0.037,3.422 0.275,3.24 0.627,2.983 0.875,2.632 0.991,2.23 1.242,1.352 0.818,0.398 0,0"
           style="fill:#231f20;fill-opacity:1;fill-rule:nonzero;stroke:none"
           id="path1578" />
      </g>
      <g
         id="g1584"
         transform="rotate(-8.9471987,910.06506,-1348.0661)">
        <path
           d="m 0,0 1.066,-3.705 4.367,1.257 -1.07,3.703 C 3.46,1.161 2.597,1.738 2.34,2.619 2.227,3.024 2.252,3.451 2.418,3.854 2.519,4.134 2.534,4.432 2.446,4.715 2.239,5.449 1.471,5.872 0.737,5.659 0,5.449 -0.421,4.683 -0.214,3.953 -0.136,3.67 0.037,3.422 0.275,3.24 0.627,2.983 0.875,2.632 0.991,2.23 1.242,1.352 0.818,0.398 0,0"
           style="fill:#231f20;fill-opacity:1;fill-rule:nonzero;stroke:none"
           id="path1582" />
      </g>
    </g>
  </g>
</svg>
